<svg id="visual" viewBox="0 0 540 960" width="540" height="960" xmlns="http://www.w3.org/2000/svg" xmlns:xlink="http://www.w3.org/1999/xlink" version="1.1"><g transform="translate(-58.801460476101596 973.039990561487)"><path d="M256.1 -293C355.8 -221.6 477.1 -163.5 491.5 -86C505.9 -8.5 413.6 88.5 342.9 185.6C272.1 282.8 222.9 380.1 148.2 407.3C73.5 434.5 -26.7 391.5 -121.2 349.8C-215.7 308.1 -304.4 267.5 -346 198.4C-387.5 129.2 -381.9 31.4 -348.9 -45.2C-315.9 -121.8 -255.6 -177.2 -192.9 -255.2C-130.2 -333.1 -65.1 -433.6 6.6 -441.4C78.2 -449.2 156.4 -364.4 256.1 -293" fill="currentColor"></path></g></svg>
