<svg id="visual" viewBox="0 0 540 960" width="540" height="960" xmlns="http://www.w3.org/2000/svg" xmlns:xlink="http://www.w3.org/1999/xlink" version="1.1"><g transform="translate(-8.974584655546408 898.261175708805)"><path d="M293.5 -346.7C382.7 -275 458.7 -184.7 456.3 -95.6C453.9 -6.6 373.1 81.1 322.5 202.5C271.8 323.9 251.3 479.1 165.1 554C78.9 629 -73.1 623.6 -195.4 566.3C-317.8 509 -410.5 399.8 -432.7 286.2C-454.9 172.6 -406.7 54.7 -384.3 -67C-362 -188.7 -365.5 -314.2 -305.7 -391C-246 -467.8 -123 -495.9 -10.4 -483.5C102.2 -471.1 204.4 -418.3 293.5 -346.7" fill="#f5950f"></path></g></svg>