<svg id="visual" viewBox="0 0 540 960" width="540" height="960" xmlns="http://www.w3.org/2000/svg" xmlns:xlink="http://www.w3.org/1999/xlink" version="1.1"><g transform="translate(527.6753183923494 -21.38952641460523)"><path d="M358.8 -380.8C457.3 -345 524.1 -224.6 505.9 -119.9C487.7 -15.3 384.6 73.6 317.2 176.3C249.8 279 218.1 395.6 150 426.8C81.9 457.9 -22.7 403.8 -133.7 364.6C-244.7 325.4 -362.3 301.2 -426.7 227.8C-491.2 154.5 -502.6 31.9 -455.2 -53C-407.8 -138 -301.5 -185.3 -215.8 -223.4C-130.2 -261.5 -65.1 -290.2 32.5 -329C130.2 -367.8 260.3 -416.6 358.8 -380.8" fill="currentColor"></path></g></svg>
