<svg id="visual" viewBox="0 0 540 960" width="540" height="960" xmlns="http://www.w3.org/2000/svg" xmlns:xlink="http://www.w3.org/1999/xlink" version="1.1"><g transform="translate(545.5379906552884 978.2178101569316)"><path d="M341.8 -366.5C441.5 -323.7 519.9 -214.6 513.6 -111.1C507.4 -7.7 416.5 90.2 341.5 175.6C266.4 261 207.3 333.9 135.7 350.2C64.1 366.4 -19.9 325.9 -131.3 308.2C-242.8 290.5 -381.6 295.5 -456.7 231.6C-531.8 167.7 -543.1 35 -499.9 -66.9C-456.6 -168.8 -358.8 -239.9 -266.4 -284C-174 -328 -87 -345 17 -365.3C121.1 -385.6 242.1 -409.2 341.8 -366.5" fill="currentColor"></path></g></svg>
