<svg id="visual" viewBox="0 0 540 960" width="540" height="960" xmlns="http://www.w3.org/2000/svg" xmlns:xlink="http://www.w3.org/1999/xlink" version="1.1"><g transform="translate(-5.94051813122806 40.56845452763139)"><path d="M337 -369.9C434 -320.2 508 -211.4 497.9 -111.1C487.9 -10.8 393.8 81.1 320 162C246.2 242.8 192.7 312.6 123.8 335.8C55 359 -29.3 335.5 -96.3 297C-163.4 258.6 -213.2 205.2 -287.7 136.8C-362.2 68.3 -461.3 -15.2 -482.5 -118.1C-503.7 -221 -447.1 -343.2 -353.7 -393.5C-260.3 -443.9 -130.2 -422.5 -5.1 -416.4C120 -410.3 240 -419.7 337 -369.9" fill="currentColor"></path></g></svg>
